<svg xmlns="http://www.w3.org/2000/svg" viewBox="0 0 193.15 193.15"><defs><style>.cls-1{fill:#cfdb00;}.cls-2{fill:#fff;}</style></defs><g id="レイヤー_2" data-name="レイヤー 2"><g id="レイヤー_1-2" data-name="レイヤー 1"><rect class="cls-1" width="193.15" height="193.15" rx="31.76"/><path class="cls-2" d="M151,90.26,100.52,40.32v0A29.21,29.21,0,1,0,59.22,81.66L71.14,93.45H70.06c-9.77,0-18.66,2.46-25.3,6.62a26.71,26.71,0,0,0-8.06,7.54,17.5,17.5,0,0,0-3.14,9.83v19.93a17.5,17.5,0,0,0,3.14,9.83c3,4.39,7.69,7.88,13.44,10.33a51.37,51.37,0,0,0,19.92,3.84c9.76,0,18.65-2.47,25.29-6.63a26.62,26.62,0,0,0,8.07-7.54,17.56,17.56,0,0,0,3.13-9.83v-8.9l3.18,3.15v0A29.21,29.21,0,1,0,151,90.26ZM67.59,69.42a12.58,12.58,0,0,1,9-21.4Zm-28.23,48a11.71,11.71,0,0,1,2.14-6.59,20.21,20.21,0,0,1,5.4-5.24l44.37,26a35.15,35.15,0,0,1-3.2,1.55,46.4,46.4,0,0,1-18,3.45c-9,0-17-2.29-22.71-5.87a21.8,21.8,0,0,1-6.61-6.15A14.41,14.41,0,0,1,39.36,122v-4.56Zm61.39,19.93A11.63,11.63,0,0,1,98.61,144c-2.14,3.18-5.93,6.13-10.9,8.24a45.59,45.59,0,0,1-17.65,3.37c-8.79,0-16.71-2.26-22.22-5.74A21.19,21.19,0,0,1,41.5,144a11.71,11.71,0,0,1-2.14-6.59v-8.23a31.34,31.34,0,0,0,11.14,7.61,50.4,50.4,0,0,0,19.56,3.76c9.61,0,18.33-2.43,24.8-6.48a27.07,27.07,0,0,0,5.89-4.87Zm0-15.37a3.32,3.32,0,0,1-.23.51,12.6,12.6,0,0,1-1.15,2,19.63,19.63,0,0,1-3.83,4.13L51.61,103c.27-.11.52-.25.79-.36a45.6,45.6,0,0,1,17.66-3.37,49.42,49.42,0,0,1,7.52.57A39,39,0,0,1,92.27,105c.47.29.92.6,1.35.92a19.55,19.55,0,0,1,4.93,4.88s0,0,.06.07a11.63,11.63,0,0,1,2.14,6.59V122Zm45.37,4.67a22.27,22.27,0,0,1-31.49,0h0l-8.07-8v-1.24a17.56,17.56,0,0,0-3.13-9.83,28.5,28.5,0,0,0-10.63-9A39.48,39.48,0,0,1,94.92,94a43.21,43.21,0,0,1,11-13.48,31.68,31.68,0,0,1,18.22-7L146.1,95.18h0a22.28,22.28,0,0,1,0,31.48Z"/></g></g></svg>