<svg xmlns="http://www.w3.org/2000/svg" viewBox="0 0 193.15 193.15"><defs><style>.cls-1{fill:#cfdb00;}.cls-2{fill:#fff;}</style></defs><g id="レイヤー_2" data-name="レイヤー 2"><g id="レイヤー_1-2" data-name="レイヤー 1"><rect class="cls-1" width="193.15" height="193.15" rx="31.76"/><path class="cls-2" d="M125.47,33.58A6.61,6.61,0,0,0,118.86,27H74.29a6.61,6.61,0,0,0-6.61,6.61V47.76h57.79V33.58Z"/><path class="cls-2" d="M129.09,72.83c-5.86-2.93-7.82-9.78-7.82-15.64V54.7H71.88v2.49c0,5.86-2,12.71-7.82,15.64-7,3.5-9.94,8.71-9.94,21.17v53.06c0,12,8.44,24.45,25.34,24.45h34.23c16.9,0,25.34-12.45,25.34-24.45V94C139,81.54,136.09,76.33,129.09,72.83Zm-4,69H68V95.16h57.11v46.63Z"/><polygon class="cls-2" points="91.69 136.2 101.46 136.2 101.46 124.6 113.05 124.6 113.05 114.84 101.46 114.84 101.46 103.24 91.69 103.24 91.69 114.84 80.09 114.84 80.09 124.6 91.69 124.6 91.69 136.2"/></g></g></svg>