<svg xmlns="http://www.w3.org/2000/svg" viewBox="0 0 193.15 193.15"><defs><style>.cls-1{fill:#7a6a56;}.cls-2{fill:none;stroke:#fff;stroke-linecap:round;stroke-miterlimit:10;stroke-width:9px;}</style></defs><g id="レイヤー_2" data-name="レイヤー 2"><g id="レイヤー_1-2" data-name="レイヤー 1"><rect class="cls-1" width="193.15" height="193.15" rx="31.76"/><path class="cls-2" d="M32.66,139v-5.49c.52-.52.43-1.23.6-1.86,2.66-10.29,8.31-17.85,19.07-20.62,1.71-.44,1.05-1.28.68-2.19A20,20,0,0,1,52,95.4C54.4,87.22,59.7,82,68.11,80.13c1.82-.4,2.1-.94.8-2.34a8.77,8.77,0,0,1-2.19-4.69A16.6,16.6,0,0,1,77.38,54.8,20.28,20.28,0,0,0,86,48.25c2.47-3,2.63-6.18.25-8.84-2.76-3.07-1.1-4.36,1.95-4.95a6.7,6.7,0,0,1,3.21.07c5.6,1.61,10.11,4.6,12.7,10a16.64,16.64,0,0,0,2.22,3.59,24.2,24.2,0,0,0,9.33,6.51c10.25,4.41,13.65,14.28,8.07,23.79-.91,1.56.31,1.49,1.12,1.64a18.24,18.24,0,0,1,6.52,2.39c9.46,5.92,12.75,15.85,8.74,26.38-.39,1-.79,1.75.8,2.16,10.33,2.67,16.27,9.82,18.71,19.74,2.11,8.58.48,16.6-6.45,22.77-5.12,4.56-11.53,5.3-18,5.31q-38.56.06-77.13,0a44.29,44.29,0,0,1-7.45-.59c-7.35-1.27-13-4.94-15.91-12.08A66.52,66.52,0,0,1,32.66,139Z"/></g></g></svg>