<svg xmlns="http://www.w3.org/2000/svg" viewBox="0 0 193.15 193.15"><defs><style>.cls-1{fill:#ffd900;}.cls-2{fill:none;stroke:#fff;stroke-linecap:round;stroke-miterlimit:10;stroke-width:9px;}</style></defs><g id="レイヤー_2" data-name="レイヤー 2"><g id="レイヤー_1-2" data-name="レイヤー 1"><rect class="cls-1" width="193.15" height="193.15" rx="31.76"/><path class="cls-2" d="M83.54,61.17c-5.58-8.23-11.32-16.35-17-24.52l-3-4.25c-.34.42-.52.61-.67.82-6.72,9.67-13.51,19.29-20.12,29a43.86,43.86,0,0,0-7.05,17.17c-1.43,8.32-.17,16.07,5.37,22.75,10,12.07,28.89,13.81,41,3.81a25.43,25.43,0,0,0,9.75-20.68C91.76,76.32,88.46,68.45,83.54,61.17Z"/><path class="cls-2" d="M149.7,109.43c-5.58-8.24-11.32-16.36-17-24.53l-3-4.24c-.34.41-.52.6-.67.81-6.72,9.67-13.51,19.29-20.12,29a43.71,43.71,0,0,0-7.05,17.17c-1.43,8.32-.18,16.07,5.37,22.75,10,12.08,28.89,13.81,41,3.81A25.45,25.45,0,0,0,158,133.56C157.91,124.58,154.62,116.7,149.7,109.43Z"/></g></g></svg>