<svg xmlns="http://www.w3.org/2000/svg" viewBox="0 0 219.51 219.51"><defs><style>.cls-1{fill:#f4b4d0;}.cls-2{fill:#fff;}</style></defs><g id="レイヤー_2" data-name="レイヤー 2"><g id="レイヤー_1-2" data-name="レイヤー 1"><circle class="cls-1" cx="109.76" cy="109.76" r="109.76"/><path class="cls-2" d="M179.51,80.47c.37-1.91-1.17-5-5.12-3.62C166,79.77,152,86,145.11,96.69a38.68,38.68,0,0,0-71.28,1.38c-8.5-10-19.38-17.17-25.17-20.58C46.16,76,44,76.21,43.1,78a50.89,50.89,0,0,0-4.59,21.64c0,13.47,4.22,29.85,1.49,44.24-.37,1.92,1.17,5,5.12,3.62,8.31-2.9,22.29-9.11,29.18-19.68a38.68,38.68,0,0,0,71.49-1.41c8.49,9.92,19.3,17.05,25.06,20.45,2.5,1.48,4.69,1.29,5.56-.54A50.66,50.66,0,0,0,181,124.71C181,111.24,176.78,94.86,179.51,80.47Zm-135,42.07c-.23-2.53-.49-5-.76-7.53-.17-1.61-.34-3.2-.49-4.75l18.5-18.5a83.54,83.54,0,0,1,6.91,6.61ZM89,140.08a34.74,34.74,0,0,1-6.79-6.75L130.7,84.87a34.63,34.63,0,0,1,6.74,6.78Zm70.11-6.34a87.33,87.33,0,0,1-7.06-6.47l23.18-23.18c.18,1.77.37,3.53.55,5.28.26,2.4.5,4.73.7,7Z"/></g></g></svg>