<svg xmlns="http://www.w3.org/2000/svg" viewBox="0 0 193.15 193.15"><defs><style>.cls-1{fill:#9fd9f6;}.cls-2{fill:#fff;}</style></defs><g id="レイヤー_2" data-name="レイヤー 2"><g id="レイヤー_1-2" data-name="レイヤー 1"><rect class="cls-1" width="193.15" height="193.15" rx="31.76"/><path class="cls-2" d="M171.14,94.84v6.42a20.18,20.18,0,0,0-.63,2.52c-1.83,13.63-5.56,26.68-12.84,38.45-8.25,13.33-19.76,22.37-35.8,23.78a230.22,230.22,0,0,1-27.68.31C83.39,166,72.61,165,62.3,161.38,49.1,156.75,40.43,148,37.44,134c-2.6-12.12.62-23.1,6.83-33.43,2-3.33,4.11-6.61,6.3-9.82,1.56-2.29,1.76-4.31,0-6.65C49,82,48,79.56,46.41,77.47a4.35,4.35,0,0,0-3.13-1.7,84.47,84.47,0,0,0-10.36,1.49c-2.47.5-4.46.19-5.74-2.15S26.81,71,28.6,69.44s3.63-3,5.69-4.68C27.16,61,23.46,55.14,22.15,47.83a12.71,12.71,0,0,1,1-7c1.29-2.9,4.8-2.78,6.55-.09.42.65.74,1.37,1.11,2.06,2.59,4.92,5.62,6.45,11.18,5.84A4.25,4.25,0,0,0,45.77,46C50.86,35.93,58.94,29.59,70,27.3c23.69-4.88,44.87,15.19,41,39-.8,4.85-2.66,9.52-3.83,14.32-2.53,10.39,1.48,17.19,11.9,19,12,2.13,23.63.48,34.28-6,2-1.21,4-2.42,6.07-3.48,6.52-3.32,9.06-2.34,11.63,4.38A2.46,2.46,0,0,1,171.14,94.84ZM66.26,60.46A5.76,5.76,0,0,0,72,54.74a5.59,5.59,0,0,0-5.58-5.82,5.77,5.77,0,0,0-5.77,5.69A5.89,5.89,0,0,0,66.26,60.46Z"/></g></g></svg>