<svg xmlns="http://www.w3.org/2000/svg" viewBox="0 0 219.51 219.51"><defs><style>.cls-1{fill:#f08300;}.cls-2{fill:#fff;}</style></defs><g id="レイヤー_2" data-name="レイヤー 2"><g id="レイヤー_1-2" data-name="レイヤー 1"><circle class="cls-1" cx="109.76" cy="109.76" r="109.76"/><path class="cls-2" d="M133.88,146.34c0-8.35-.11-16.71,0-25.07A23.3,23.3,0,0,0,126.35,103c-5.6-5.26-9.95-11.39-11.65-19-3-13.6.26-25.52,10.73-34.85,10.16-9,23.74-8.31,33.4,1.26a35.69,35.69,0,0,1,.64,49.49c-1.13,1.18-2.29,2.34-3.46,3.48A23.5,23.5,0,0,0,148.83,121c.09,17.63,0,35.25,0,52.88,0,5.43-2.65,8.18-7.63,8.12-4.54-.06-7.29-2.73-7.32-7.32C133.84,165.24,133.88,155.79,133.88,146.34Z"/><path class="cls-2" d="M69.63,145.56c0-8.44-.14-16.89,0-25.34.16-7-2.09-12.55-8.12-16.46-7.86-5.11-11-12.69-11.06-21.82,0-10.63-.11-21.26-.1-31.88,0-4.2,2.67-7.09,6.33-7.05s5.92,2.71,6,7.06c.07,8.63,0,17.26,0,25.89,0,.91,0,1.82,0,2.72.13,2.73,1.5,4.1,4,4.09s3.93-1.4,4-4.16c0-9.44,0-18.89,0-28.34,0-4,1.1-5.79,3.87-6.74,5-1.72,8.85.9,8.89,6.15.07,9.45,0,18.9,0,28.34,0,2.14.33,4,2.82,4.63,3.13.73,5.06-.8,5.08-4.19,0-9,0-18,0-27a17,17,0,0,1,.33-3.78A6.1,6.1,0,0,1,97.73,43c2.87.07,5.87,2.26,5.85,5.1-.08,13.6-.22,27.21-.79,40.8-.22,5.19-3.3,9.29-7.39,12.55-10.33,8.23-10.91,8.93-10.81,23.35.11,16.53,0,33.06,0,49.6,0,5-2.83,7.71-7.85,7.59-4.53-.11-7.08-2.84-7.1-7.83C69.6,164.64,69.63,155.1,69.63,145.56Z"/></g></g></svg>