<svg xmlns="http://www.w3.org/2000/svg" viewBox="0 0 196.84 193.15"><defs><style>.cls-1{fill:#e3cec2;}.cls-2{fill:#fff;}.cls-3{fill:#fff100;}</style></defs><g id="レイヤー_2" data-name="レイヤー 2"><g id="レイヤー_1-2" data-name="レイヤー 1"><rect class="cls-1" width="196.84" height="193.15" rx="31.76"/><path class="cls-2" d="M155.68,103.42C148,72.61,118,61,115.4,58.2l7.36-26.79s-9.19-3-22.07,2.57C84.3,41,75.17,32,75.17,32l8.08,26.58c-2.53,2.89-34.36,15.82-40.12,46.27-5,26.19,10.58,63.57,57.07,63S162.18,129.29,155.68,103.42Zm-62.81,9.93H77.82v-7.3H88.17L75.86,86.89h8.78l15,23.39,15-23.39h8.77l-12.3,19.16h10.34v7.3H106.46L104,117.26v4.66h17.56v7.31H104V142H95.38V129.23H77.82v-7.31H95.38"/><polygon class="cls-3" points="158.14 109.26 169.13 131.53 193.71 135.1 175.93 152.43 180.12 176.91 158.14 165.35 136.16 176.91 140.36 152.43 122.58 135.1 147.15 131.53 158.14 109.26"/></g></g></svg>