<svg xmlns="http://www.w3.org/2000/svg" viewBox="0 0 193.15 193.15"><defs><style>.cls-1{fill:#f6ab00;}.cls-2{fill:#fff;}.cls-3{fill:#fff100;}</style></defs><g id="レイヤー_2" data-name="レイヤー 2"><g id="レイヤー_1-2" data-name="レイヤー 1"><rect class="cls-1" width="193.15" height="193.15" rx="31.76"/><path class="cls-2" d="M150.74,103.42C143,72.61,113.08,61,110.47,58.2l7.36-26.79s-9.19-3-22.08,2.57C79.36,41,70.23,32,70.23,32l8.09,26.58C75.78,61.51,44,74.44,38.19,104.89c-5,26.19,10.58,63.57,57.08,63S157.24,129.29,150.74,103.42Zm-34.17,2.63v7.3h-15L99,117.26v4.66h17.55v7.31H99V142H90.45V129.23H72.89v-7.31H90.45v-4.66l-2.52-3.91h-15v-7.3H83.23L70.92,86.89H79.7l15,23.39,15-23.39h8.76l-12.3,19.16Z"/><polygon class="cls-3" points="152.64 109.26 163.63 131.53 188.21 135.1 170.42 152.43 174.62 176.91 152.64 165.35 130.66 176.91 134.85 152.43 117.07 135.1 141.65 131.53 152.64 109.26"/></g></g></svg>