<svg xmlns="http://www.w3.org/2000/svg" viewBox="0 0 193.15 193.15"><defs><style>.cls-1{fill:#009fa8;}.cls-2{fill:#fff;}</style></defs><g id="レイヤー_2" data-name="レイヤー 2"><g id="レイヤー_1-2" data-name="レイヤー 1"><rect class="cls-1" width="193.15" height="193.15" rx="31.76"/><path class="cls-2" d="M98.21,156.75h0c17.33-3.86,28.5-17.45,33.7-30.82a3.42,3.42,0,0,1,.13-.34l1.21-3.16a79.32,79.32,0,0,0,.45-52.05,64,64,0,0,0-7.35-16.78c-7.52-12.06-9.3-10.91-12.22-13.76s-9.33-3.53-13.41-3.43h-39A6.36,6.36,0,0,0,55.31,42a6.19,6.19,0,0,0,6.16,6.79H87.64a2.73,2.73,0,0,1,2.71,2.72v2.42a2.71,2.71,0,0,1-2.72,2.71H60a4.76,4.76,0,1,0,0,9.52H87.63a2.72,2.72,0,0,1,2.72,2.72v2.41A2.71,2.71,0,0,1,87.64,74H60.3a4.93,4.93,0,0,0-5,4.51,4.76,4.76,0,0,0,4.75,5h27.6a2.71,2.71,0,0,1,2.71,2.72v2.42a2.71,2.71,0,0,1-2.71,2.71H60a4.76,4.76,0,1,0,0,9.52h27.6a2.72,2.72,0,0,1,2.71,2.71V106a2.72,2.72,0,0,1-2.72,2.72H60.3a4.94,4.94,0,0,0-5,4.5,4.76,4.76,0,0,0,4.76,5H87.63A2.71,2.71,0,0,1,90.35,121v2.42a2.73,2.73,0,0,1-2.71,2.72H60a4.75,4.75,0,0,0-4.75,5,4.94,4.94,0,0,0,5,4.5H87.64a2.71,2.71,0,0,1,2.71,2.71v2.42a2.7,2.7,0,0,1-2.71,2.71H61.74a6.37,6.37,0,0,0-6.43,5.57,6.19,6.19,0,0,0,6.16,6.8l36.74.9"/></g></g></svg>