<svg xmlns="http://www.w3.org/2000/svg" viewBox="0 0 193.15 193.15"><defs><style>.cls-1{fill:#0075c2;}.cls-2{fill:#fff;}.cls-3{fill:#fff100;}</style></defs><g id="レイヤー_2" data-name="レイヤー 2"><g id="レイヤー_1-2" data-name="レイヤー 1"><rect class="cls-1" width="193.15" height="193.15" rx="31.76"/><polygon class="cls-2" points="142.84 27.27 133.32 36.85 137.69 41.16 137.71 41.18 124.57 54.38 138.8 68.61 151.91 55.44 156.36 59.83 165.88 50.25 142.84 27.27"/><path class="cls-2" d="M107.1,46.63l-.23-.23h0l0,0L97.32,56,101,59.61l-29.9,29.9L47.31,113.36l5.11,22L27.27,165.82l.06.06,30.39-25.14,22.11,5.08L103.64,122l29.84-29.9,3.78,3.72,9.46-9.52,0,0h0l0,0ZM74.83,97.32,86.68,109.1l4.66-4.72L79.55,92.66,86.19,86,98,97.75,102.7,93,91,81.38l-.07-.08,5.6-5.66,21,20.94L78,136.17l-17-3.91-4-17,6.54-6.54,11.77,11.71,0,0h0l0,0L80,115.74,68.2,104l6.62-6.68Z"/><polygon class="cls-3" points="149.85 109.26 160.84 131.53 185.42 135.1 167.64 152.43 171.84 176.91 149.85 165.35 127.87 176.91 132.07 152.43 114.29 135.1 138.86 131.53 149.85 109.26"/></g></g></svg>