<svg xmlns="http://www.w3.org/2000/svg" viewBox="0 0 193.15 193.15"><defs><style>.cls-1{fill:#c9caca;}.cls-2{fill:#fff;}</style></defs><g id="レイヤー_2" data-name="レイヤー 2"><g id="レイヤー_1-2" data-name="レイヤー 1"><rect class="cls-1" width="193.15" height="193.15" rx="31.76"/><path class="cls-2" d="M158.2,44.42v106c-1.87,5.56-5.45,8.47-11.6,8.45-33.39-.11-66.77,0-100.16-.06-7.61,0-11.47-4-11.48-11.64q0-19.74,0-39.49,0-30.21,0-60.43c0-5.21,2.16-8.93,7.13-10.84a5.94,5.94,0,0,0,1-.65H150C154,37.43,157,40.11,158.2,44.42ZM106.85,82.11c4.89,0,9.36-.06,13.83,0a2.43,2.43,0,0,0,2.75-2c1.73-5.33,3.53-10.65,5.44-15.92.6-1.66.24-2.59-1.31-3.18-5.6-2.14-11.06-4.86-16.83-6.31-15.8-4-30.86-1.35-45.18,6.22-1.58.84-1.95,1.71-1.32,3.42C66.14,69.66,67.94,75,69.68,80.3a2.31,2.31,0,0,0,2.61,1.83q13.13-.07,26.24,0a2.09,2.09,0,0,0,2.42-2c1-4.46,2.22-8.87,3.15-13.34.38-1.79,1.06-2.06,2.78-1.77,2.13.36,3,1.06,2.2,3.27a12.13,12.13,0,0,0-.41,2.36C108.08,74.36,107.5,78,106.85,82.11Z"/></g></g></svg>