<svg xmlns="http://www.w3.org/2000/svg" viewBox="0 0 219.51 219.51"><defs><style>.cls-1{fill:#d0bb9b;}.cls-2{fill:none;stroke:#fff;stroke-linecap:round;stroke-miterlimit:10;stroke-width:9px;}</style></defs><g id="レイヤー_2" data-name="レイヤー 2"><g id="レイヤー_1-2" data-name="レイヤー 1"><circle class="cls-1" cx="109.76" cy="109.76" r="109.76"/><path class="cls-2" d="M142.94,87.31c-9.24-13.63-18.75-27.07-28.14-40.59-1.57-2.26-3.17-4.51-4.94-7-.56.68-.86,1-1.1,1.34C97.64,57,86.39,73,75.45,89.11a72.34,72.34,0,0,0-11.66,28.41c-2.38,13.78-.3,26.61,8.88,37.67,16.59,20,47.82,22.85,67.82,6.29,10.73-8.88,16.23-20.19,16.14-34.22C156.54,112.39,151.09,99.34,142.94,87.31Z"/></g></g></svg>