<!--?xml version="1.0" encoding="utf-8"?-->
<!-- Generator: Adobe Illustrator 19.1.1, SVG Export Plug-In . SVG Version: 6.00 Build 0)  -->
<svg version="1.1" id="_x31_0" xmlns="http://www.w3.org/2000/svg" xmlns:xlink="http://www.w3.org/1999/xlink" x="0px" y="0px" viewBox="0 0 512 512" style="width: 16px; height: 16px; opacity: 1;" xml:space="preserve">
<style type="text/css">
	.st0{fill:#374149;}
</style>
<g>
	<path class="st0" d="M476.158,292.309H365.846v-92.57v-27.344h-27.344H173.498h-27.344v27.344v92.449v0.122H35.842H8.498v27.343
		v165.004V512h27.344h137.656h165.004h137.656h27.344v-27.344V319.652v-27.343H476.158z M173.498,319.652V199.738h165.004v119.914
		h137.656v165.004H338.502h-22.687v-90.945h-49.298v90.945h-21.035v-90.507v-0.278l0,0v-0.16h-49.297v90.55v0.394h-22.687H35.842
		V319.652H173.498z" style="fill: rgb(75, 75, 75);"></path>
	<polygon class="st0" points="196.185,78.457 196.185,78.617 237.201,78.617 237.201,119.633 274.799,119.633 274.799,78.617 
		315.815,78.617 315.815,41.016 274.799,41.016 274.799,0 237.201,0 237.201,41.016 196.185,41.016 196.185,78.226 196.181,78.457 	
		" style="fill: rgb(75, 75, 75);"></polygon>
	<rect x="204.959" y="244.457" class="st0" width="37.598" height="37.598" style="fill: rgb(75, 75, 75);"></rect>
	<polygon class="st0" points="269.444,281.894 269.444,282.054 307.041,282.054 307.041,244.457 269.444,244.457 269.444,281.668 
		269.444,281.894 	" style="fill: rgb(75, 75, 75);"></polygon>
	<rect x="204.959" y="304.598" class="st0" width="37.598" height="37.598" style="fill: rgb(75, 75, 75);"></rect>
	<polygon class="st0" points="269.444,342.195 307.041,342.195 307.041,304.598 269.444,304.598 269.444,341.809 269.444,342.039 
		269.444,342.039 	" style="fill: rgb(75, 75, 75);"></polygon>
	<polygon class="st0" points="67.303,398.11 67.303,398.27 104.44,398.27 123.24,398.27 142.041,398.27 142.041,360.672 
		123.24,360.672 104.44,360.672 67.303,360.672 67.303,397.996 67.299,398.11 	" style="fill: rgb(75, 75, 75);"></polygon>
	<polygon class="st0" points="369.963,398.11 369.963,398.27 407.1,398.27 425.9,398.27 444.701,398.27 444.701,360.672 
		425.9,360.672 407.1,360.672 369.963,360.672 369.963,397.996 369.963,398.11 	" style="fill: rgb(75, 75, 75);"></polygon>
</g>
</svg>
