<!--?xml version="1.0" encoding="utf-8"?-->
<!-- Generator: Adobe Illustrator 24.1.1, SVG Export Plug-In . SVG Version: 6.00 Build 0)  -->
<svg version="1.1" id="_x31_0" xmlns="http://www.w3.org/2000/svg" xmlns:xlink="http://www.w3.org/1999/xlink" x="0px" y="0px" viewBox="0 0 512 512" style="width: 16px; height: 16px; opacity: 1;" xml:space="preserve">
<style type="text/css">
	.st0{fill:#374149;}
</style>
<g>
	<path class="st0" d="M440.36,53.879h-72.657v27.469h48.844v387.82H95.289V81.348h49.004V53.879H71.559
		c-9.996,0-18.043,8.129-18.043,18.042v421.954c0,9.996,8.047,18.125,18.043,18.125H440.36c10,0,18.125-8.129,18.125-18.125V71.922
		C458.484,62.008,450.36,53.879,440.36,53.879z" style="fill: rgb(75, 75, 75);"></path>
	<rect x="149.25" y="384.324" class="st0" width="213.336" height="25.274" style="fill: rgb(75, 75, 75);"></rect>
	<rect x="149.25" y="324.59" class="st0" width="213.336" height="25.195" style="fill: rgb(75, 75, 75);"></rect>
	<polygon class="st0" points="273.84,262.258 273.84,220.726 315.367,220.726 315.367,184.805 273.84,184.805 273.84,143.359 
		238,143.359 238,184.805 196.468,184.805 196.468,220.726 238,220.726 238,262.258 	" style="fill: rgb(75, 75, 75);"></polygon>
	<path class="st0" d="M351.453,81.348V53.879V41.285h-56.89c0-0.894,0.082-1.706,0.082-2.602C294.644,17.309,277.336,0,255.961,0
		c-21.294,0-38.606,17.309-38.606,38.683c0,0.895,0,1.707,0.082,2.602h-56.89v12.594v27.469V91.59h190.906V81.348z M255.961,21.371
		c7.23,0,12.922,5.774,12.922,12.922c0,7.153-5.691,12.922-12.922,12.922c-7.157,0-12.926-5.77-12.926-12.922
		C243.035,27.145,248.804,21.371,255.961,21.371z" style="fill: rgb(75, 75, 75);"></path>
</g>
</svg>
